{
  "asset": {
    "version": "2.0",
    "generator": "yew-tower-defense-game placeholder"
  },
  "scene": 0,
  "scenes": [{ "nodes": [0] }],
  "nodes": [
    {
      "name": "tower_cannon_placeholder",
      "mesh": 0
    }
  ],
  "meshes": [
    {
      "name": "CannonBox",
      "primitives": [
        {
          "attributes": { "POSITION": 0 },
          "indices": 1,
          "mode": 4
        }
      ]
    }
  ],
  "accessors": [
    {
      "bufferView": 0,
      "componentType": 5126,
      "count": 8,
      "type": "VEC3",
      "max": [0.45, 1.4, 0.45],
      "min": [-0.45, 0.0, -0.45]
    },
    {
      "bufferView": 1,
      "componentType": 5123,
      "count": 36,
      "type": "SCALAR"
    }
  ],
  "bufferViews": [
    {
      "buffer": 0,
      "byteOffset": 0,
      "byteLength": 96,
      "target": 34962
    },
    {
      "buffer": 0,
      "byteOffset": 96,
      "byteLength": 72,
      "target": 34963
    }
  ],
  "buffers": [
    {
      "byteLength": 168,
      "uri": "data:application/octet-stream;base64,"
    }
  ]
}
